<svg xmlns="http://www.w3.org/2000/svg" width="1216" height="672" viewBox="0 0 1216 672" version="1.1"><path d="M 864 152 L 864 160 856 160 L 848 160 848 176 L 848 192 864 192 L 880 192 880 184 L 880 176 896 176 L 912 176 912 160 L 912 144 888 144 L 864 144 864 152 M 144 248 L 144 256 136 256 L 128 256 128 272 L 128 288 144 288 L 160 288 160 280 L 160 272 168 272 L 176 272 176 256 L 176 240 160 240 L 144 240 144 248" stroke="none" fill="#fefefe" fill-rule="evenodd"/><path d="M 336 152 L 336 160 280 160 L 224 160 224 168 L 224 176 192 176 L 160 176 160 184 L 160 192 136 192 L 112 192 112 200 L 112 208 104 208 L 96 208 96 304 L 96 400 88 400 L 80 400 80 456 L 80 512 72 512 L 64 512 64 536 L 64 560 104 560 L 144 560 144 552 L 144 544 208 544 L 272 544 272 536 L 272 528 296 528 L 320 528 320 520 L 320 512 352 512 L 384 512 384 488 L 384 464 376 464 L 368 464 368 304 L 368 144 352 144 L 336 144 336 152 M 144 248 L 144 256 136 256 L 128 256 128 272 L 128 288 144 288 L 160 288 160 280 L 160 272 168 272 L 176 272 176 256 L 176 240 160 240 L 144 240 144 248" stroke="none" fill="#00aed8" fill-rule="evenodd"/><path d="M 464 208 L 464 320 496 320 L 528 320 528 208 L 528 96 496 96 L 464 96 464 208 M 464 504 L 464 544 472 544 L 480 544 480 552 L 480 560 488 560 L 496 560 496 568 L 496 576 504 576 L 512 576 512 568 L 512 560 520 560 L 528 560 528 552 L 528 544 536 544 L 544 544 544 536 L 544 528 560 528 L 576 528 576 520 L 576 512 560 512 L 544 512 544 504 L 544 496 528 496 L 512 496 512 488 L 512 480 496 480 L 480 480 480 472 L 480 464 472 464 L 464 464 464 504" stroke="none" fill="#ff8080" fill-rule="evenodd"/><path d="M 544 232 L 544 320 576 320 L 608 320 608 232 L 608 144 576 144 L 544 144 544 232 M 528 408 L 528 416 512 416 L 496 416 496 424 L 496 432 488 432 L 480 432 480 440 L 480 448 472 448 L 464 448 464 456 L 464 464 472 464 L 480 464 480 472 L 480 480 496 480 L 512 480 512 488 L 512 496 528 496 L 544 496 544 504 L 544 512 560 512 L 576 512 576 456 L 576 400 552 400 L 528 400 528 408" stroke="none" fill="#8080ff" fill-rule="evenodd"/><path d="M 624 160 L 624 320 656 320 L 688 320 688 160 L 688 0 656 0 L 624 0 624 160 M 816 72 L 816 80 824 80 L 832 80 832 152 L 832 224 824 224 L 816 224 816 280 L 816 336 808 336 L 800 336 800 352 L 800 368 792 368 L 784 368 784 408 L 784 448 776 448 L 768 448 768 480 L 768 512 808 512 L 848 512 848 504 L 848 496 920 496 L 992 496 992 488 L 992 480 1064 480 L 1136 480 1136 456 L 1136 432 1128 432 L 1120 432 1120 368 L 1120 304 1128 304 L 1136 304 1136 224 L 1136 144 1128 144 L 1120 144 1120 128 L 1120 112 1088 112 L 1056 112 1056 104 L 1056 96 1032 96 L 1008 96 1008 88 L 1008 80 984 80 L 960 80 960 72 L 960 64 888 64 L 816 64 816 72 M 864 152 L 864 160 856 160 L 848 160 848 176 L 848 192 864 192 L 880 192 880 184 L 880 176 896 176 L 912 176 912 160 L 912 144 888 144 L 864 144 864 152 M 576 464 L 576 528 560 528 L 544 528 544 536 L 544 544 536 544 L 528 544 528 552 L 528 560 520 560 L 512 560 512 576 L 512 592 560 592 L 608 592 608 584 L 608 576 616 576 L 624 576 624 568 L 624 560 632 560 L 640 560 640 552 L 640 544 648 544 L 656 544 656 496 L 656 448 648 448 L 640 448 640 440 L 640 432 632 432 L 624 432 624 424 L 624 416 616 416 L 608 416 608 408 L 608 400 592 400 L 576 400 576 464" stroke="none" fill="#80ff80" fill-rule="evenodd"/><path d="M 784 8 L 784 16 776 16 L 768 16 768 24 L 768 32 760 32 L 752 32 752 48 L 752 64 760 64 L 768 64 768 112 L 768 160 760 160 L 752 160 752 192 L 752 224 744 224 L 736 224 736 248 L 736 272 728 272 L 720 272 720 288 L 720 304 712 304 L 704 304 704 312 L 704 320 568 320 L 432 320 432 208 L 432 96 424 96 L 416 96 416 88 L 416 80 368 80 L 320 80 320 88 L 320 96 264 96 L 208 96 208 104 L 208 112 176 112 L 144 112 144 120 L 144 128 112 128 L 80 128 80 136 L 80 144 56 144 L 32 144 32 152 L 32 160 24 160 L 16 160 16 168 L 16 176 8 176 L 0 176 0 192 L 0 208 8 208 L 16 208 16 224 L 16 240 24 240 L 32 240 32 312 L 32 384 24 384 L 16 384 16 440 L 16 496 8 496 L 0 496 0 576 L 0 656 8 656 L 16 656 16 664 L 16 672 32 672 L 48 672 48 664 L 48 656 56 656 L 64 656 64 640 L 64 624 112 624 L 160 624 160 616 L 160 608 224 608 L 288 608 288 600 L 288 592 312 592 L 336 592 336 584 L 336 576 352 576 L 368 576 368 584 L 368 592 376 592 L 384 592 384 600 L 384 608 400 608 L 416 608 416 600 L 416 592 424 592 L 432 592 432 584 L 432 576 440 576 L 448 576 448 512 L 448 448 440 448 L 432 448 432 416 L 432 384 560 384 L 688 384 688 408 L 688 432 680 432 L 672 432 672 480 L 672 528 680 528 L 688 528 688 552 L 688 576 696 576 L 704 576 704 584 L 704 592 752 592 L 800 592 800 584 L 800 576 856 576 L 912 576 912 568 L 912 560 1032 560 L 1152 560 1152 552 L 1152 544 1168 544 L 1184 544 1184 536 L 1184 528 1192 528 L 1200 528 1200 520 L 1200 512 1208 512 L 1216 512 1216.243 583.750 L 1216.485 655.500 1216.805 591 L 1217.125 526.500 1216.447 495.250 L 1215.770 464 1207.885 464 L 1200 464 1200 440 L 1200 416 1192 416 L 1184 416 1184 368 L 1184 320 1192 320 L 1200 320 1200 224 L 1200 128 1192 128 L 1184 128 1184 104 L 1184 80 1176 80 L 1168 80 1168 72 L 1168 64 1152 64 L 1136 64 1136 56 L 1136 48 1104 48 L 1072 48 1072 40 L 1072 32 1048 32 L 1024 32 1024 24 L 1024 16 1000 16 L 976 16 976 8 L 976 0 880 0 L 784 0 784 8 M 816 72 L 816 80 824 80 L 832 80 832 152 L 832 224 824 224 L 816 224 816 280 L 816 336 808 336 L 800 336 800 352 L 800 368 792 368 L 784 368 784 408 L 784 448 776 448 L 768 448 768 480 L 768 512 808 512 L 848 512 848 504 L 848 496 920 496 L 992 496 992 488 L 992 480 1064 480 L 1136 480 1136 456 L 1136 432 1128 432 L 1120 432 1120 368 L 1120 304 1128 304 L 1136 304 1136 224 L 1136 144 1128 144 L 1120 144 1120 128 L 1120 112 1088 112 L 1056 112 1056 104 L 1056 96 1032 96 L 1008 96 1008 88 L 1008 80 984 80 L 960 80 960 72 L 960 64 888 64 L 816 64 816 72 M 336 152 L 336 160 280 160 L 224 160 224 168 L 224 176 192 176 L 160 176 160 184 L 160 192 136 192 L 112 192 112 200 L 112 208 104 208 L 96 208 96 304 L 96 400 88 400 L 80 400 80 456 L 80 512 72 512 L 64 512 64 536 L 64 560 104 560 L 144 560 144 552 L 144 544 208 544 L 272 544 272 536 L 272 528 296 528 L 320 528 320 520 L 320 512 352 512 L 384 512 384 488 L 384 464 376 464 L 368 464 368 304 L 368 144 352 144 L 336 144 336 152 M 0.477 576 L 0.477 656.500 0.750 616.250 L 1.023 576 0.750 535.750 L 0.477 495.500 0.477 576" stroke="none" fill="#000000" fill-rule="evenodd"/></svg>